:SAMPLES-PER-SECOND 30
:FULLY-SPECIFIED
:DEGREES
33
root  77.2689 39.5876 1.73559 171.058 -77.6363 -171.056
RightUpLeg  -15.3888 -8.9931 0.697472
RightLeg  11.8046 -3.65762 1.00162
RightFoot  2.85721 0.35117 -2.63817
RightToes  0.00048216 0.542163 -0.142577
Spine  9.90827 -1.75881 4.33158
Spine1  8.16893 -1.79829 0.327581
HEad  12.496 10.3787 -7.17692
LeftShoulder1  8.02945 -11.1485 -47.8182
LeftArm  -7.83572 1.08979 -38.0501
LeftForeArm  40.4958 -11.1713 -5.63167
LeftHand  -0.25398 0.0180481 5.50724
RightShoulder  5.73829 9.28379 38.7967
RightArm  -2.86186 -7.82476 33.7597
RightForeArm  13.2479 6.56703 7.65816
RightHand  -0.584013 -0.531979 -14.0988
LeftUpLeg  7.45236 9.05572 4.79515
LeftLeg  9.28803 18.9567 -2.47529
LeftFoot  -15.8387 -0.0822132 -4.52615
LeftToes  1.06248e-005 4.65856e-005 -8.185e-006
34
root  76.4692 39.5108 1.52104 165.694 -76.8976 -165.93
RightUpLeg  -14.5466 -9.93267 2.11282
RightLeg  13.5828 -2.33248 0.827376
RightFoot  0.843403 0.199842 -1.81876
RightToes  0.00048216 0.542163 -0.142577
Spine  9.95285 -2.31638 6.71939
Spine1  9.0564 -2.09312 -0.0956831
HEad  12.7354 11.0617 -7.66565
LeftShoulder1  7.62135 -10.6071 -47.1141
LeftArm  -6.60525 0.90459 -38.0917
LeftForeArm  39.5396 -12.9987 -5.40062
LeftHand  -0.25398 0.0180481 5.50724
RightShoulder  5.68575 9.36258 38.14
RightArm  -2.78945 -6.51628 32.673
RightForeArm  11.3117 5.91435 7.85302
RightHand  -0.504522 -0.975131 -13.0191
LeftUpLeg  8.58915 11.5953 6.43783
LeftLeg  10.8134 17.104 -0.899266
LeftFoot  -16.6705 -0.134154 -4.98419
LeftToes  1.06248e-005 4.65856e-005 -8.185e-006
35
root  75.696 39.4264 1.23614 161.823 -76.9654 -161.929
RightUpLeg  -13.9862 -11.1963 3.02483
RightLeg  15.1841 -1.53376 0.990908
RightFoot  -1.08535 0.15602 -1.83904
RightToes  0.00048216 0.542163 -0.142577
Spine  10.1732 -2.65157 8.17993
Spine1  8.89688 -2.32762 0.169386
HEad  13.5702 10.9873 -7.50806
LeftShoulder1  7.33271 -10.2689 -46.4269
LeftArm  -5.55163 1.40155 -37.5391
LeftForeArm  34.3228 -15.0339 -5.0218
LeftHand  -0.25398 0.0180481 5.50724
RightShoulder  5.52591 9.025 38.061
RightArm  -4.63354 -6.06271 31.1783
RightForeArm  9.17125 6.24838 7.60756
RightHand  -0.323115 -1.96343 -10.6865
LeftUpLeg  8.08494 16.3267 8.14207
LeftLeg  14.4404 11.4063 1.47607
LeftFoot  -17.0994 -0.282717 -7.66073
LeftToes  1.06248e-005 4.65856e-005 -8.185e-006
36
root  74.9888 39.3496 0.890841 159.051 -77.6231 -158.872
RightUpLeg  -13.6038 -12.0812 3.49193
RightLeg  16.697 -1.62766 1.12813
RightFoot  -2.97976 0.169938 -2.5963
RightToes  0.00048216 0.542163 -0.142577
Spine  10.5754 -2.74377 8.87522
Spine1  8.35768 -2.41686 0.922153
HEad  14.4927 10.0958 -7.00867
LeftShoulder1  7.299 -10.2769 -46.1785
LeftArm  -4.57065 2.21326 -36.2716
LeftForeArm  29.714 -18.0466 -4.26381
LeftHand  -0.25398 0.0180481 5.50724
RightShoulder  5.39931 8.64088 38.3973
RightArm  -6.40242 -5.66955 29.7524
RightForeArm  7.75847 6.93433 7.24607
RightHand  -0.332332 -2.08732 -11.1912
LeftUpLeg  5.18466 17.6077 8.9325
LeftLeg  21.3234 8.33098 4.1989
LeftFoot  -15.7279 -0.351769 -11.925
LeftToes  1.06248e-005 4.65856e-005 -8.185e-006
37
root  74.3221 39.3227 0.544575 156.759 -78.2873 -156.526
RightUpLeg  -12.7257 -12.5829 3.60952
RightLeg  17.5945 -2.06641 1.24831
RightFoot  -4.64683 0.134885 -2.82921
RightToes  0.00048216 0.542163 -0.142577
Spine  11.0575 -2.69336 9.74068
Spine1  8.34677 -2.17507 1.06491
HEad  14.8427 8.74302 -6.59979
LeftShoulder1  7.32727 -10.336 -46.1591
LeftArm  -5.17202 2.79172 -34.7721
LeftForeArm  28.4628 -21.8979 -3.57825
LeftHand  -0.25398 0.0180481 5.50724
RightShoulder  5.39245 8.56213 38.6209
RightArm  -7.92957 -4.91602 29.0403
RightForeArm  5.41331 7.04784 6.9844
RightHand  -0.53538 -0.944759 -13.8185
LeftUpLeg  0.624348 14.1272 8.98669
LeftLeg  30.8999 10.5612 7.11537
LeftFoot  -11.115 0.0683666 -12.8581
LeftToes  1.06248e-005 4.65856e-005 -8.185e-006
38
root  73.6606 39.3168 0.237758 154.561 -78.9114 -154.395
RightUpLeg  -11.5758 -12.8767 3.45673
RightLeg  18.1656 -2.59914 1.47564
RightFoot  -6.06671 0.0787486 -2.60192
RightToes  0.00048216 0.542163 -0.142577
Spine  11.3948 -2.53708 10.9964
Spine1  8.79998 -1.64537 0.573719
HEad  14.8235 7.2617 -6.39713
LeftShoulder1  7.28041 -10.2766 -46.0581
LeftArm  -8.11639 3.24644 -33.4086
LeftForeArm  29.8694 -26.0693 -3.96261
LeftHand  -0.25398 0.0180481 5.50724
RightShoulder  5.41041 8.66782 38.3908
RightArm  -9.57873 -4.0591 29.0461
RightForeArm  2.95597 6.68871 6.73991
RightHand  -0.747513 0.285567 -15.3599
LeftUpLeg  -4.70214 12.0518 8.85375
LeftLeg  40.6515 10.5355 9.86982
LeftFoot  -5.04443 0.501945 -8.73202
LeftToes  1.06248e-005 4.65856e-005 -8.185e-006
39
root  72.9703 39.3248 -0.0455813 152.985 -79.8356 -152.787
RightUpLeg  -10.3816 -12.7444 2.93758
RightLeg  18.517 -3.66578 1.72216
RightFoot  -7.38342 0.0372833 -2.5284
RightToes  0.00048216 0.542163 -0.142577
Spine  11.4327 -2.24649 11.9736
Spine1  9.14579 -1.0348 0.126012
HEad  15.0949 5.72727 -6.26802
LeftShoulder1  7.25188 -10.2605 -45.9273
LeftArm  -10.7224 4.02396 -32.1981
LeftForeArm  30.9237 -30.2135 -4.86943
LeftHand  -0.25398 0.0180481 5.50724
RightShoulder  5.37572 8.71166 37.9644
RightArm  -10.685 -3.28306 29.2023
RightForeArm  3.24316 6.35738 6.47651
RightHand  -0.74873 0.627452 -14.4872
LeftUpLeg  -9.87561 10.4405 8.22387
LeftLeg  47.784 7.92934 9.63074
LeftFoot  -1.47404 0.407304 -4.45607
LeftToes  1.06248e-005 4.65856e-005 -8.185e-006
40
root  72.2209 39.4077 -0.334368 153.929 -81.0154 -153.672
RightUpLeg  -8.74304 -12.02 1.91237
RightLeg  18.0219 -5.26773 1.90615
RightFoot  -8.46806 0.00436917 -2.45177
RightToes  0.00048216 0.542163 -0.142577
Spine  11.279 -1.75836 12.2249
Spine1  9.14976 -0.35527 -0.349424
HEad  15.7423 4.16259 -6.15223
LeftShoulder1  7.31807 -10.4086 -45.8525
LeftArm  -12.2518 5.18588 -31.159
LeftForeArm  31.6998 -33.8746 -5.70448
LeftHand  -0.25398 0.0180481 5.50724
RightShoulder  5.33483 8.68878 37.7211
RightArm  -10.5622 -2.54229 29.1334
RightForeArm  5.71255 6.37894 6.39178
RightHand  -0.637402 0.474936 -12.68
LeftUpLeg  -14.0431 9.29603 6.9822
LeftLeg  50.9795 4.6759 6.6434
LeftFoot  -1.33318 0.356479 -3.99338
LeftToes  1.06248e-005 4.65856e-005 -8.185e-006
41
root  71.4259 39.5401 -0.614662 157.191 -82.1655 -156.951
RightUpLeg  -6.65674 -11.0668 0.657021
RightLeg  16.8271 -6.94664 2.13316
RightFoot  -9.26326 -0.0235706 -2.15697
RightToes  0.00048216 0.542163 -0.142577
Spine  11.161 -1.17023 12.2371
Spine1  8.94846 0.421595 -1.10397
HEad  16.2759 2.67644 -6.14593
LeftShoulder1  7.39592 -10.5906 -45.7402
LeftArm  -13.3764 6.44723 -30.5289
LeftForeArm  32.8092 -36.6615 -6.36139
LeftHand  -0.25398 0.0180481 5.50724
RightShoulder  5.31165 8.67277 37.5929
RightArm  -9.67186 -2.00409 29.0497
RightForeArm  6.79876 7.22638 6.62017
RightHand  -0.574614 0.257755 -11.8621
LeftUpLeg  -17.1061 8.81221 5.40425
LeftLeg  50.38 2.79426 4.07677
LeftFoot  -2.31905 0.441509 -5.41198
LeftToes  1.06248e-005 4.65856e-005 -8.185e-006
42
root  70.6129 39.6703 -0.873809 161.546 -83.3441 -161.29
RightUpLeg  -4.4613 -10.3101 -0.58149
RightLeg  15.3714 -8.46404 2.48764
RightFoot  -9.88932 -0.0436708 -1.83713
RightToes  0.00048216 0.542163 -0.142577
Spine  11.0989 -0.606665 12.1663
Spine1  8.67139 1.15087 -1.95617
HEad  16.3201 1.33474 -6.19474
LeftShoulder1  7.40534 -10.6649 -45.5523
LeftArm  -14.3073 7.58233 -30.3025
LeftForeArm  33.6154 -38.4464 -6.80344
LeftHand  -0.25398 0.0180481 5.50724
RightShoulder  5.28631 8.65893 37.4397
RightArm  -8.51505 -1.86472 29.1945
RightForeArm  4.85601 9.2974 6.95565
RightHand  -0.56057 -0.112948 -12.3323
LeftUpLeg  -19.4282 9.03648 3.57461
LeftLeg  46.7071 3.05719 3.85854
LeftFoot  -2.92599 0.421213 -5.47471
LeftToes  1.06248e-005 4.65856e-005 -8.185e-006
43
root  69.7866 39.7799 -1.11545 167.523 -84.6974 -167.074
RightUpLeg  -2.33235 -9.84683 -1.73337
RightLeg  13.7404 -9.82531 2.87747
RightFoot  -10.528 -0.0608685 -1.43565
RightToes  0.00048216 0.542163 -0.142577
Spine  10.7893 -0.133131 11.798
Spine1  8.63625 1.70157 -2.77706
HEad  15.9864 0.282125 -6.14763
LeftShoulder1  7.3817 -10.6717 -45.3792
LeftArm  -14.9697 8.50455 -30.1653
LeftForeArm  33.6798 -39.2095 -7.01682
LeftHand  -0.25398 0.0180481 5.50724
RightShoulder  5.2988 8.68977 37.4323
RightArm  -6.57913 -1.82205 29.4573
RightForeArm  1.17449 12.2141 6.98468
RightHand  -0.576595 -0.284957 -13.0836
LeftUpLeg  -21.1265 9.92448 1.44562
LeftLeg  40.5086 4.52992 4.50442
LeftFoot  -3.41232 0.352682 -4.80401
LeftToes  1.06248e-005 4.65856e-005 -8.185e-006
44
root  68.9329 39.8517 -1.33204 175.681 -85.9509 -174.926
RightUpLeg  -0.270943 -9.54362 -2.62327
RightLeg  12.055 -11.0471 3.15761
RightFoot  -11.1924 -0.0746651 -0.880937
RightToes  0.00048216 0.542163 -0.142577
Spine  10.0467 0.235103 11.4118
Spine1  9.18361 2.15408 -3.71948
HEad  15.4415 -0.544491 -5.89791
LeftShoulder1  7.36828 -10.6859 -45.247
LeftArm  -15.4682 9.22155 -30.0318
LeftForeArm  33.2473 -38.8829 -6.95051
LeftHand  -0.25398 0.0180481 5.50724
RightShoulder  5.39403 8.84358 37.6542
RightArm  -4.22477 -1.35713 29.6727
RightForeArm  -1.74489 14.9125 6.65467
RightHand  -0.594808 -0.118546 -13.0966
LeftUpLeg  -21.9921 11.6335 -0.851388
LeftLeg  32.0256 5.17935 3.87186
LeftFoot  -3.37299 0.403586 -5.47387
LeftToes  1.06248e-005 4.65856e-005 -8.185e-006
45
root  68.0384 39.8706 -1.51719 -175.943 -86.9397 176.933
RightUpLeg  1.79755 -9.25297 -3.0992
RightLeg  10.5691 -12.2628 3.2822
RightFoot  -11.8303 -0.0828424 -0.563464
RightToes  0.00048216 0.542163 -0.142577
Spine  9.23502 0.500606 11.2438
Spine1  10.016 2.55319 -4.61008
HEad  14.7963 -1.17984 -5.55897
LeftShoulder1  7.34977 -10.6809 -45.1453
LeftArm  -16.0062 9.86927 -30.0817
LeftForeArm  32.6082 -37.4048 -6.577
LeftHand  -0.25398 0.0180481 5.50724
RightShoulder  5.50636 9.04723 37.8346
RightArm  -2.18238 -0.451925 29.9456
RightForeArm  -3.21305 16.9415 6.22685
RightHand  -0.553929 -0.214402 -12.4
LeftUpLeg  -22.1115 14.4181 -3.35127
LeftLeg  22.1889 3.70686 2.10726
LeftFoot  -1.58618 0.532482 -6.15276
LeftToes  1.06248e-005 4.65856e-005 -8.185e-006
46
root  67.0959 39.8114 -1.68091 -163.342 -88.0485 164.41
RightUpLeg  3.90375 -9.02995 -3.23248
RightLeg  9.58498 -13.5625 3.29672
RightFoot  -12.7889 -0.091192 -0.380388
RightToes  0.00048216 0.542163 -0.142577
Spine  8.84125 0.627146 10.9926
Spine1  10.4885 2.73344 -4.93975
HEad  14.2555 -1.72664 -5.18831
LeftShoulder1  7.32961 -10.6411 -45.1478
LeftArm  -16.4317 10.5144 -30.3022
LeftForeArm  31.6257 -34.7161 -5.92444
LeftHand  -0.25398 0.0180481 5.50724
RightShoulder  5.5446 9.14289 37.806
RightArm  -0.493421 0.433128 30.3927
RightForeArm  -4.22418 18.779 5.7813
RightHand  -0.458441 -0.927552 -11.8181
LeftUpLeg  -21.7408 14.885 -4.71841
LeftLeg  13.1111 3.85608 -0.149034
LeftFoot  1.25053 0.570389 -5.25285
LeftToes  1.06248e-005 4.65856e-005 -8.185e-006
47
root  66.088 39.6516 -1.82415 -158.579 -89.5609 159.588
RightUpLeg  6.06458 -9.03203 -3.19295
RightLeg  9.22088 -14.752 3.29983
RightFoot  -14.3129 -0.0835981 0.457536
RightToes  0.00048216 0.542163 -0.142577
Spine  8.71577 0.656306 10.5543
Spine1  10.5854 2.68002 -4.76283
HEad  14.0335 -2.29376 -4.64653
LeftShoulder1  7.33618 -10.6388 -45.1976
LeftArm  -16.1734 10.9791 -30.5409
LeftForeArm  29.8425 -30.6988 -5.03709
LeftHand  -0.25398 0.0180481 5.50724
RightShoulder  5.52544 9.11918 37.739
RightArm  0.76229 0.974858 30.9493
RightForeArm  -5.3333 20.6374 5.40874
RightHand  -0.405569 -1.53506 -11.9725
LeftUpLeg  -20.7629 7.0975 -2.23807
LeftLeg  6.68491 12.5794 -3.50571
LeftFoot  2.91602 0.505614 -4.17002
LeftToes  1.06248e-005 4.65856e-005 -8.185e-006
